<svg xmlns="http://www.w3.org/2000/svg" viewBox="0 0 48 48" fill="none">
  <circle cx="6" cy="24" r="4.5" fill="#534AB7"/>
  <rect x="14" y="8" width="14" height="10" rx="5" stroke="#534AB7" stroke-width="1.5" fill="#EEEDFE"/>
  <rect x="14" y="30" width="14" height="10" rx="5" stroke="#534AB7" stroke-width="1.5" fill="#EEEDFE"/>
  <circle cx="42" cy="24" r="4.5" stroke="#534AB7" stroke-width="1.5" fill="none"/>
  <circle cx="42" cy="24" r="2.2" fill="#534AB7"/>
  <line x1="10.5" y1="24" x2="14" y2="14" stroke="#534AB7" stroke-width="1.3" stroke-linecap="round"/>
  <polygon points="14,14 11,18 16,17" fill="#534AB7"/>
  <line x1="10.5" y1="24" x2="14" y2="34" stroke="#534AB7" stroke-width="1.3" stroke-linecap="round"/>
  <polygon points="14,34 11,30 16,31" fill="#534AB7"/>
  <line x1="28" y1="13" x2="38" y2="20" stroke="#534AB7" stroke-width="1.3" stroke-linecap="round"/>
  <polygon points="38,20 33,19 35,24" fill="#534AB7"/>
  <line x1="28" y1="35" x2="38" y2="28" stroke="#534AB7" stroke-width="1.3" stroke-linecap="round"/>
  <polygon points="38,28 33,29 35,24" fill="#534AB7"/>
  <path d="M21 18 Q28 13 28 24 Q28 35 21 30" stroke="#534AB7" stroke-width="1" fill="none" stroke-dasharray="2,1.5" opacity=".7"/>
  <text x="21" y="14.5" font-size="4.5" fill="#534AB7" font-family="system-ui" text-anchor="middle">S1</text>
  <text x="21" y="36.5" font-size="4.5" fill="#534AB7" font-family="system-ui" text-anchor="middle">S2</text>
</svg>